<?xml version="1.0" encoding="utf-8"?>
<!-- Generator: Adobe Illustrator 25.0.0, SVG Export Plug-In . SVG Version: 6.00 Build 0)  -->
<svg version="1.1" xmlns="http://www.w3.org/2000/svg" xmlns:xlink="http://www.w3.org/1999/xlink" x="0px" y="0px"
	 viewBox="0 0 192.06 124.93" style="enable-background:new 0 0 192.06 124.93;" xml:space="preserve">
<style type="text/css">
	.st0{display:none;}
	.st1{display:inline;fill:#8B5CF6;stroke:#231F20;stroke-miterlimit:10;}
	.st2{display:inline;fill:#00FF85;stroke:#000000;stroke-miterlimit:10;}
	.st3{display:inline;fill:#8B5CF6;stroke:#8B5CF6;stroke-miterlimit:10;}
	.st4{display:inline;fill:#00FF85;stroke:#00FF85;stroke-miterlimit:10;}
	.st5{display:inline;}
	.st6{display:inline;stroke:#00FF85;stroke-miterlimit:10;}
	.st7{fill:#231F20;}
	.st8{fill:none;stroke:#F0E11D;stroke-miterlimit:10;}
	.st9{fill:none;stroke:#00FF85;stroke-miterlimit:10;}
	.st10{display:inline;fill:#231F20;stroke:#231F20;stroke-miterlimit:10;}
	.st11{fill:#8B5CF6;}
	.st12{fill:none;stroke:#231F20;stroke-miterlimit:10;}
	.st13{display:inline;fill:#FFFFFF;stroke:#231F20;stroke-miterlimit:10;}
	.st14{display:inline;fill:none;stroke:#231F20;stroke-miterlimit:10;}
</style>
<g id="Layer_2" class="st0">
	<circle class="st1" cx="96.27" cy="83.72" r="44.17"/>
	<ellipse class="st2" cx="77.13" cy="77.75" rx="7.58" ry="5.72"/>
	<ellipse class="st3" cx="111.77" cy="74.76" rx="6.99" ry="5.28"/>
	<path class="st2" d="M70.32,75.2c0.39-0.85,0.78-1.7,1.02-2.6c0.33-1.29,0.16-2.62,0.31-3.93c0.15-1.26,0.69-2.41,0.91-3.65
		c0.11-0.61,0.04-1.41,0.15-2.1c0.16,0.7,0.26,1.43,0.39,2.12c0.21,1.14,0.4,2.28,0.59,3.42c0.09,0.54,0.85,0.49,0.97,0
		c0.43-1.83,0.75-3.69,0.94-5.57c0.13-1.27,0.07-2.69,0.32-3.99c0.21,0.52,0.45,1.03,0.68,1.54c0.44,0.98,0.78,2.01,1.04,3.07
		c0.53,2.17,0.74,4.41,0.93,6.64c0.06,0.69,0.97,0.71,1,0c0.04-0.78,0.49-1.42,0.83-2.09c0.35-0.68,0.56-1.41,0.69-2.17
		c0.19-1.11,0.27-2.47,0.91-3.4c0.43,4.5,1.2,8.96,2.29,13.33c-2.19-0.41-4.44-0.54-6.67-0.62C75.2,75.11,72.76,75.12,70.32,75.2z"
		/>
	<line class="st4" x1="71.92" y1="74.14" x2="71.03" y2="76.01"/>
	<line class="st4" x1="83.51" y1="76.61" x2="82.99" y2="74.69"/>
	<path class="st4" d="M82.8,75.61c-0.01-0.04-0.01-0.09-0.04-0.13c0.04-0.48-0.28-1.02-0.82-1.1c-0.24-0.04-0.49,0.03-0.68,0.19
		c-0.05-0.06-0.11-0.11-0.18-0.15c-0.52-0.34-1.18-0.37-1.77-0.25c-0.13,0.03-0.22,0.11-0.28,0.21c-0.2,0.02-0.4,0.04-0.6,0.07
		c-0.06,0.01-0.1,0.04-0.15,0.07c-0.42-0.05-0.85-0.06-1.25-0.09c-0.6-0.03-1.28-0.12-1.88,0.04c-0.23,0-0.45-0.01-0.68-0.03
		c-0.01,0-0.01,0-0.02,0c-0.43-0.08-0.86-0.16-1.29-0.23c-0.03-0.01-0.06,0-0.09,0c-0.19-0.14-0.44-0.17-0.64,0.07
		c-0.31,0.38-0.52,0.79-0.63,1.27c-0.07,0.31,0.09,0.56,0.38,0.67c0.32,0.12,0.63,0,0.86-0.24c0,0,0,0,0,0
		c0.38,0.18,0.91,0.16,1.27,0.09c0.03,0,0.05-0.01,0.08-0.02c0.08,0.06,0.16,0.1,0.26,0.11c0.14,0.01,0.29,0.01,0.43,0.02
		c0.69,0.15,1.48,0.08,2.16,0.01c0.33-0.03,0.74-0.05,1.13-0.13c0.17,0.02,0.35,0.03,0.53,0.04c0.16,0.01,0.32,0.01,0.48,0.02
		c0.09,0.1,0.21,0.17,0.37,0.18c0.55,0.03,1.11,0.04,1.66,0.04c0.07,0.28,0.35,0.45,0.67,0.4c0.35-0.05,0.65-0.23,0.77-0.58
		C82.93,75.95,82.89,75.77,82.8,75.61z"/>
	<ellipse class="st2" cx="113.01" cy="77.75" rx="7.58" ry="5.72"/>
	<path class="st2" d="M112.5,75.2c-2.23,0.08-4.48,0.2-6.67,0.62c1.1-4.37,1.86-8.83,2.29-13.33c0.64,0.94,0.72,2.29,0.91,3.4
		c0.13,0.77,0.34,1.49,0.69,2.17c0.34,0.67,0.79,1.3,0.83,2.09c0.03,0.71,0.94,0.69,1,0c0.2-2.23,0.4-4.47,0.93-6.64
		c0.26-1.06,0.6-2.08,1.04-3.07c0.23-0.51,0.47-1.02,0.68-1.54c0.25,1.3,0.19,2.71,0.32,3.99c0.19,1.88,0.51,3.74,0.94,5.57
		c0.12,0.49,0.88,0.54,0.97,0c0.19-1.14,0.39-2.28,0.59-3.42c0.12-0.69,0.22-1.42,0.39-2.12c0.11,0.69,0.04,1.49,0.15,2.1
		c0.22,1.24,0.76,2.39,0.91,3.65c0.15,1.31-0.02,2.64,0.31,3.93c0.23,0.9,0.63,1.76,1.02,2.6C117.38,75.12,114.94,75.11,112.5,75.2z
		"/>
	<line class="st4" x1="118.22" y1="74.14" x2="119.11" y2="76.01"/>
	<line class="st4" x1="106.63" y1="76.61" x2="107.14" y2="74.69"/>
	<path class="st4" d="M107.33,75.61c0.01-0.04,0.01-0.09,0.04-0.13c-0.04-0.48,0.28-1.02,0.82-1.1c0.24-0.04,0.49,0.03,0.68,0.19
		c0.05-0.06,0.11-0.11,0.18-0.15c0.52-0.34,1.18-0.37,1.77-0.25c0.13,0.03,0.22,0.11,0.28,0.21c0.2,0.02,0.4,0.04,0.6,0.07
		c0.06,0.01,0.1,0.04,0.15,0.07c0.42-0.05,0.85-0.06,1.25-0.09c0.6-0.03,1.28-0.12,1.88,0.04c0.23,0,0.45-0.01,0.68-0.03
		c0.01,0,0.01,0,0.02,0c0.43-0.08,0.86-0.16,1.29-0.23c0.03-0.01,0.06,0,0.09,0c0.19-0.14,0.44-0.17,0.64,0.07
		c0.31,0.38,0.52,0.79,0.63,1.27c0.07,0.31-0.09,0.56-0.38,0.67c-0.32,0.12-0.63,0-0.86-0.24c0,0,0,0,0,0
		c-0.38,0.18-0.91,0.16-1.27,0.09c-0.03,0-0.05-0.01-0.08-0.02c-0.08,0.06-0.16,0.1-0.26,0.11c-0.14,0.01-0.29,0.01-0.43,0.02
		c-0.69,0.15-1.48,0.08-2.16,0.01c-0.33-0.03-0.74-0.05-1.13-0.13c-0.17,0.02-0.35,0.03-0.53,0.04c-0.16,0.01-0.32,0.01-0.48,0.02
		c-0.09,0.1-0.21,0.17-0.37,0.18c-0.55,0.03-1.11,0.04-1.66,0.04c-0.07,0.28-0.35,0.45-0.67,0.4c-0.35-0.05-0.65-0.23-0.77-0.58
		C107.2,75.95,107.24,75.77,107.33,75.61z"/>
	<ellipse class="st5" cx="77.08" cy="77.75" rx="5.06" ry="3.82"/>
	<ellipse class="st5" cx="113.05" cy="77.75" rx="5.06" ry="3.82"/>
	<rect x="90.65" y="20.4" class="st6" width="10.82" height="35.47"/>
	<g id="XMLID_4_" class="st5">
		<g>
			<g>
				<polygon points="71.78,19.96 71.78,55.42 65.71,51.3 65.71,15.84 				"/>
			</g>
			<g>
				<line x1="71.78" y1="19.96" x2="65.71" y2="15.84"/>
				<line x1="71.78" y1="55.42" x2="65.71" y2="51.3"/>
				<line x1="65.71" y1="15.84" x2="65.71" y2="51.3"/>
				<line x1="71.78" y1="19.96" x2="71.78" y2="55.42"/>
			</g>
		</g>
		<g>
			<g>
				<polygon class="st7" points="71.78,19.96 71.78,55.42 65.71,51.3 65.71,15.84 				"/>
			</g>
			<g>
				<line class="st8" x1="71.78" y1="19.96" x2="65.71" y2="15.84"/>
				<line class="st8" x1="71.78" y1="55.42" x2="65.71" y2="51.3"/>
				<line class="st8" x1="65.71" y1="15.84" x2="65.71" y2="51.3"/>
				<line class="st8" x1="71.78" y1="19.96" x2="71.78" y2="55.42"/>
			</g>
		</g>
		<g>
			<g>
				<polygon class="st9" points="71.78,19.96 71.78,55.42 65.71,51.3 65.71,15.84 				"/>
			</g>
			<g>
				<line class="st9" x1="71.78" y1="19.96" x2="65.71" y2="15.84"/>
				<line class="st9" x1="71.78" y1="55.42" x2="65.71" y2="51.3"/>
				<line class="st9" x1="65.71" y1="15.84" x2="65.71" y2="51.3"/>
				<line class="st9" x1="71.78" y1="19.96" x2="71.78" y2="55.42"/>
			</g>
		</g>
	</g>
	<g id="XMLID_3_" class="st5">
		<g>
			<g>
				<polygon class="st7" points="126.87,51.3 126.88,15.84 120.93,19.95 120.93,55.42 				"/>
			</g>
			<g>
				<line class="st8" x1="126.87" y1="51.3" x2="120.93" y2="55.42"/>
				<line class="st8" x1="126.88" y1="15.84" x2="120.93" y2="19.95"/>
				<line class="st8" x1="120.93" y1="55.42" x2="120.93" y2="19.95"/>
				<line class="st8" x1="126.87" y1="51.3" x2="126.88" y2="15.84"/>
			</g>
		</g>
		<g>
			<g>
				<polygon class="st9" points="126.87,51.3 126.88,15.84 120.93,19.95 120.93,55.42 				"/>
			</g>
			<g>
				<line class="st9" x1="126.87" y1="51.3" x2="120.93" y2="55.42"/>
				<line class="st9" x1="126.88" y1="15.84" x2="120.93" y2="19.95"/>
				<line class="st9" x1="120.93" y1="55.42" x2="120.93" y2="19.95"/>
				<line class="st9" x1="126.87" y1="51.3" x2="126.88" y2="15.84"/>
			</g>
		</g>
	</g>
	<rect x="72.66" y="38.13" class="st6" width="18.01" height="17.73"/>
	<rect x="101.47" y="38.13" class="st6" width="18.58" height="17.73"/>
</g>
<g id="Layer_4" class="st0">
	<circle class="st10" cx="95.98" cy="86.83" r="44.17"/>
</g>
<g id="Layer_1">
	<rect x="51.84" y="13.15" class="st7" width="88.37" height="111.78"/>
	<g id="XMLID_1_">
		<g>
			<polygon class="st7" points="49.74,13.14 49.74,124.94 0,111.94 0,0.16 			"/>
		</g>
		<g>
		</g>
	</g>
	<g id="XMLID_2_">
		<g>
			<polygon class="st7" points="192.04,111.78 192.06,0 142.33,12.99 142.32,124.77 			"/>
		</g>
		<g>
		</g>
	</g>
</g>
<g id="Layer_5">
	<g id="XMLID_26_">
		<g>
			<polygon class="st11" points="114.08,56.58 96.12,52.12 96.12,46.44 			"/>
		</g>
		<g>
		</g>
	</g>
	<g id="XMLID_25_">
		<g>
			<polygon class="st11" points="95.47,46.48 95.47,52.09 77.55,56.83 			"/>
		</g>
		<g>
		</g>
	</g>
	<g id="XMLID_24_">
		<g>
			<polygon class="st11" points="95.28,52.7 82.23,76.6 76.74,57.77 			"/>
		</g>
		<g>
		</g>
	</g>
	<g id="XMLID_23_">
		<g>
			<polygon class="st11" points="95.76,53.25 109.27,76.83 82.62,77.09 			"/>
		</g>
		<g>
		</g>
	</g>
	<g id="XMLID_22_">
		<g>
			<polygon class="st11" points="115.21,57.58 109.69,76.31 96.12,52.7 			"/>
		</g>
		<g>
		</g>
	</g>
	<g id="XMLID_21_">
		<g>
			<polygon class="st11" points="76.26,58.26 81.65,77.09 76.22,80.03 			"/>
		</g>
		<g>
		</g>
	</g>
	<g id="XMLID_20_">
		<g>
			<polygon class="st11" points="115.82,57.74 115.79,80.16 110.24,76.96 			"/>
		</g>
		<g>
		</g>
	</g>
	<g id="XMLID_19_">
		<g>
			<polygon class="st11" points="115.37,80.74 97.22,91.3 109.94,77.54 			"/>
		</g>
		<g>
		</g>
	</g>
	<g id="XMLID_18_">
		<g>
			<polygon class="st11" points="109.11,77.47 95.94,91.62 82.91,77.67 			"/>
		</g>
		<g>
		</g>
	</g>
	<g id="XMLID_17_">
		<g>
			<polygon class="st11" points="82.01,77.64 94.8,91.17 76.51,80.61 			"/>
		</g>
		<g>
		</g>
	</g>
	<line class="st12" x1="98.74" y1="71.83" x2="94.57" y2="66.51"/>
	<line class="st12" x1="94.64" y1="67.27" x2="103.93" y2="50.29"/>
	<line class="st12" x1="98.6" y1="71.09" x2="90.89" y2="89.7"/>
</g>
<g id="Layer_3" class="st0">
	<line class="st13" x1="167.48" y1="4.56" x2="167.08" y2="47.24"/>
	<line class="st13" x1="181.16" y1="9.68" x2="153.42" y2="42.13"/>
	<line class="st13" x1="153.72" y1="9.42" x2="180.85" y2="42.38"/>
	<line class="st13" x1="188.63" y1="26.1" x2="145.94" y2="25.7"/>
	<line class="st14" x1="151.03" y1="9.22" x2="153.72" y2="9.44"/>
	<line class="st14" x1="153.94" y1="6.76" x2="153.72" y2="9.44"/>
	<line class="st14" x1="165.6" y1="2.67" x2="167.51" y2="4.56"/>
	<line class="st14" x1="169.41" y1="2.65" x2="167.51" y2="4.56"/>
	<line class="st14" x1="183.76" y1="9.64" x2="181.07" y2="9.81"/>
	<line class="st14" x1="180.9" y1="7.12" x2="181.07" y2="9.81"/>
	<line class="st14" x1="144.06" y1="27.59" x2="145.96" y2="25.68"/>
	<line class="st14" x1="144.04" y1="23.78" x2="145.96" y2="25.68"/>
	<line class="st14" x1="153.51" y1="44.75" x2="153.51" y2="42.06"/>
	<line class="st14" x1="150.81" y1="42.06" x2="153.51" y2="42.06"/>
	<line class="st14" x1="180.74" y1="44.99" x2="180.79" y2="42.3"/>
	<line class="st14" x1="183.48" y1="42.35" x2="180.79" y2="42.3"/>
	<line class="st14" x1="165.16" y1="49.11" x2="167.11" y2="47.25"/>
	<line class="st14" x1="168.97" y1="49.2" x2="167.11" y2="47.25"/>
	<line class="st14" x1="190.37" y1="28.02" x2="188.52" y2="26.07"/>
	<line class="st14" x1="190.46" y1="24.22" x2="188.52" y2="26.07"/>
</g>
</svg>
